<?xml version="1.0" encoding="utf-8"?>
<!-- Generator: Adobe Illustrator 22.0.0, SVG Export Plug-In . SVG Version: 6.00 Build 0)  -->
<svg version="1.1" id="Layer_1" xmlns="http://www.w3.org/2000/svg" xmlns:xlink="http://www.w3.org/1999/xlink" x="0px" y="0px"
	 viewBox="0 0 20 20" style="enable-background:new 0 0 20 20;" xml:space="preserve">
<g id="surface1">
	<path d="M8,1C6.9,1,6,1.9,6,3v1H2C0.9,4,0,4.9,0,6v2h20V6c0-1.1-0.9-2-2-2h-4V3c0-1.1-0.9-2-2-2H8z M8,3h4v1H8V3z M0,10v7.2
		c0,1,0.9,1.8,2,1.8h16c1.1,0,2-0.8,2-1.8V10h-3v1h-4v-1H7v1H3v-1H0z"/>
</g>
</svg>
