<svg width="16" height="16" viewBox="0 0 16 16" fill="none" xmlns="http://www.w3.org/2000/svg">
<path d="M13.4795 4.28285L14.4904 3.27198C14.523 3.23937 14.5556 3.20677 14.5556 3.20677C15.1751 2.5872 15.1751 1.57633 14.5556 0.956766C14.2295 0.663288 13.8382 0.500244 13.4143 0.500244C12.9904 0.500244 12.5991 0.663288 12.3056 0.956766C12.3056 0.956766 12.273 0.989375 12.2404 1.02198L11.2295 2.03285L13.4795 4.28285Z" fill="black"/>
<path d="M10.3491 2.91327L0.762106 12.5002C0.729497 12.5328 0.696889 12.5981 0.66428 12.6307L0.0121062 15.0763C-0.0205025 15.1741 0.0121062 15.3046 0.109932 15.4024C0.17515 15.4676 0.240367 15.5002 0.338193 15.5002C0.370802 15.5002 0.40341 15.5002 0.436019 15.5002L2.88167 14.8481C2.94689 14.8481 2.9795 14.8154 3.01211 14.7502L12.5991 5.16327L10.3491 2.91327Z" fill="black"/>
</svg>
